M48
; DRILL file {KiCad 9.0.8} date 2026-03-26T00:25:18-0400
; FORMAT={-:-/ absolute / inch / decimal}
; #@! TF.CreationDate,2026-03-26T00:25:18-04:00
; #@! TF.GenerationSoftware,Kicad,Pcbnew,9.0.8
; #@! TF.FileFunction,Plated,1,4,PTH
FMAT,2
INCH
; #@! TA.AperFunction,Plated,PTH,ViaDrill
T1C0.0157
; #@! TA.AperFunction,Plated,PTH,ComponentDrill
T2C0.0197
; #@! TA.AperFunction,Plated,PTH,ComponentDrill
T3C0.0276
; #@! TA.AperFunction,Plated,PTH,ComponentDrill
T4C0.0300
; #@! TA.AperFunction,Plated,PTH,ComponentDrill
T5C0.0315
; #@! TA.AperFunction,Plated,PTH,ComponentDrill
T6C0.0394
; #@! TA.AperFunction,Plated,PTH,ComponentDrill
T7C0.0429
; #@! TA.AperFunction,Plated,PTH,ComponentDrill
T8C0.0472
; #@! TA.AperFunction,Plated,PTH,ComponentDrill
T9C0.0512
; #@! TA.AperFunction,Plated,PTH,ComponentDrill
T10C0.0551
; #@! TA.AperFunction,Plated,PTH,ComponentDrill
T11C0.0689
; #@! TA.AperFunction,Plated,PTH,ComponentDrill
T12C0.0701
; #@! TA.AperFunction,Plated,PTH,ComponentDrill
T13C0.0709
; #@! TA.AperFunction,Plated,PTH,ComponentDrill
T14C0.0768
; #@! TA.AperFunction,Plated,PTH,ComponentDrill
T15C0.1260
%
G90
G05
T1
X4.4472Y-5.3939
X4.66Y-6.0
X5.02Y-6.12
X5.515Y-5.12
X5.62Y-6.1
X5.66Y-6.26
X5.705Y-4.955
X5.78Y-5.96
X5.81Y-6.12
X5.9421Y-6.1079
X5.9561Y-6.2465
X5.962Y-6.2854
X6.005Y-6.0
X6.15Y-6.3697
X6.1866Y-6.187
X6.255Y-6.045
X6.31Y-6.41
X6.44Y-6.26
X6.46Y-6.48
X6.475Y-6.08
X6.5067Y-5.9576
X6.55Y-5.88
X6.56Y-6.42
X6.64Y-5.8
X6.64Y-6.44
X6.6472Y-6.0743
X6.7172Y-6.0733
X6.72Y-5.72
X6.7783Y-6.4583
X6.785Y-5.975
X6.8047Y-6.52
X7.025Y-3.905
X7.38Y-5.3
X7.56Y-5.42
X7.66Y-4.68
X7.78Y-5.3
X8.2Y-6.2
X8.22Y-5.52
X8.2954Y-3.2446
X8.3512Y-6.1512
X8.63Y-5.81
X8.78Y-5.6
X9.0827Y-6.8839
X9.1299Y-6.6811
X9.34Y-5.09
X9.38Y-3.625
X9.385Y-3.73
X9.43Y-5.09
X9.445Y-3.625
X9.445Y-3.73
X9.51Y-3.625
X9.51Y-3.73
X9.725Y-3.885
X9.755Y-3.465
X9.885Y-4.205
X9.98Y-4.24
X10.02Y-5.5159
X10.09Y-4.2
X10.1Y-3.91
X10.105Y-4.09
X10.115Y-3.73
X10.125Y-5.5159
X10.175Y-4.005
X10.185Y-3.815
X10.225Y-5.5159
X10.25Y-4.09
X10.255Y-3.915
X10.265Y-3.73
X10.335Y-3.815
X10.34Y-4.01
X10.395Y-3.73
X10.405Y-4.09
X10.41Y-3.91
X10.47Y-4.27
X10.6278Y-5.1151
X10.67Y-5.1151
X10.9843Y-5.2362
X11.1Y-3.79
X11.145Y-4.105
X11.17Y-3.555
X11.24Y-4.175
X11.24Y-4.3
X11.245Y-3.555
X11.2643Y-3.8843
X11.31Y-3.79
X11.47Y-5.58
X11.57Y-5.02
X11.66Y-5.02
T2
X4.0061Y-4.4379
X4.0079Y-5.3947
X4.034Y-4.3707
X4.034Y-4.505
X4.0345Y-5.327
X4.037Y-5.4613
X4.1011Y-4.3429
X4.1011Y-4.5329
X4.1011Y-5.2979
X4.1047Y-5.4879
X4.1683Y-4.3707
X4.1683Y-4.505
X4.1688Y-5.3244
X4.1714Y-5.4588
X4.1961Y-4.4379
X4.1979Y-5.3911
X6.3961Y-4.6129
X6.3961Y-5.2229
X6.424Y-4.5457
X6.424Y-4.68
X6.424Y-5.1557
X6.424Y-5.29
X6.4911Y-4.5179
X6.4911Y-4.7079
X6.4911Y-5.1279
X6.4911Y-5.3179
X6.5583Y-4.5457
X6.5583Y-4.68
X6.5583Y-5.1557
X6.5583Y-5.29
X6.5861Y-4.6129
X6.5861Y-5.2229
T3
X7.9754Y-5.9381
X7.9754Y-6.2381
X8.2754Y-5.9381
X8.2754Y-6.2381
X8.4754Y-5.9381
X8.4754Y-6.2381
X8.6754Y-5.9381
X8.6754Y-6.2381
T4
X3.1083Y-6.7815
X3.374Y-3.1988
X4.1083Y-6.7815
X4.374Y-3.1988
T5
X9.67Y-4.45
X9.67Y-5.35
X9.67Y-5.68
X9.67Y-6.58
X9.77Y-4.45
X9.77Y-5.35
X9.77Y-5.68
X9.77Y-6.58
X9.87Y-4.45
X9.87Y-5.35
X9.87Y-5.68
X9.87Y-6.58
X9.97Y-4.45
X9.97Y-5.35
X9.97Y-5.68
X9.97Y-6.58
X10.07Y-4.45
X10.07Y-5.35
X10.07Y-5.68
X10.07Y-6.58
X10.17Y-4.45
X10.17Y-5.35
X10.17Y-5.68
X10.17Y-6.58
X10.27Y-4.45
X10.27Y-5.35
X10.27Y-5.68
X10.27Y-6.58
X10.37Y-4.45
X10.37Y-5.35
X10.37Y-5.68
X10.37Y-6.58
X10.47Y-4.45
X10.47Y-5.35
X10.47Y-5.68
X10.47Y-6.58
X10.57Y-4.45
X10.57Y-5.35
X10.57Y-5.68
X10.57Y-6.58
X10.67Y-4.45
X10.67Y-5.35
X10.67Y-5.68
X10.67Y-6.58
X10.77Y-4.45
X10.77Y-5.35
X10.77Y-5.68
X10.77Y-6.58
X10.87Y-4.45
X10.87Y-5.35
X10.87Y-5.68
X10.87Y-6.58
X10.97Y-4.45
X10.97Y-5.35
X10.97Y-5.68
X10.97Y-6.58
X11.07Y-4.45
X11.07Y-5.35
X11.07Y-5.68
X11.07Y-6.58
X11.17Y-4.45
X11.17Y-5.35
X11.17Y-5.68
X11.17Y-6.58
X11.27Y-4.45
X11.27Y-5.35
X11.27Y-5.68
X11.27Y-6.58
X11.37Y-4.45
X11.37Y-5.35
X11.37Y-5.68
X11.37Y-6.58
X11.47Y-4.45
X11.47Y-5.35
X11.47Y-5.68
X11.47Y-6.58
X11.5699Y-5.3501
X11.5699Y-6.5801
X11.57Y-4.45
X11.57Y-5.68
X11.6699Y-5.3501
X11.6699Y-6.5801
X11.67Y-4.45
X11.67Y-5.68
X11.7699Y-5.3501
X11.7699Y-6.5801
X11.77Y-4.45
X11.77Y-5.68
T6
X4.1411Y-4.7929
X4.1411Y-4.8929
X4.1411Y-4.9929
X6.9556Y-4.2156
X7.15Y-4.9224
X7.15Y-5.2176
X7.1644Y-4.4244
X8.12Y-5.5338
X8.12Y-5.7338
X8.42Y-5.5338
X8.42Y-5.7338
X8.52Y-5.5338
X8.52Y-5.7338
X8.9213Y-5.5786
X8.9213Y-5.677
X8.9254Y-6.0513
X8.9254Y-6.1497
X9.4254Y-2.938
X9.4254Y-3.238
X9.4254Y-3.338
X9.6254Y-2.938
X9.6254Y-3.238
X9.6254Y-3.338
T7
X7.8483Y-4.8779
X8.2483Y-4.8779
T8
X3.15Y-4.5713
X3.15Y-5.1619
X3.29Y-5.988
X3.59Y-4.5713
X3.59Y-5.1619
X4.49Y-5.988
T9
X2.6471Y-4.238
X2.6571Y-5.498
X3.5329Y-4.238
X3.5429Y-5.498
X8.7641Y-3.0801
X8.7641Y-3.5623
X9.0003Y-3.6411
X9.2365Y-3.5623
X9.2386Y-3.0801
T10
X6.697Y-2.67
X6.86Y-2.67
X11.1355Y-3.235
X11.2985Y-3.235
T11
X6.411Y-6.8665
X6.411Y-7.1815
X6.4898Y-7.024
X6.5685Y-6.8665
X6.5685Y-7.1815
X6.6472Y-7.024
X6.726Y-6.8665
X6.726Y-7.1815
X6.8047Y-7.024
X6.8835Y-6.8665
X6.8835Y-7.1815
X6.9622Y-7.024
X7.0409Y-6.8665
X7.0409Y-7.1815
X7.7642Y-2.5292
X7.7642Y-2.8442
X7.8429Y-2.6867
X7.9217Y-2.5292
X7.9217Y-2.8442
X8.0004Y-2.6867
X8.0791Y-2.5292
X8.0791Y-2.8442
X8.1579Y-2.6867
X8.2366Y-2.5292
X8.2366Y-2.8442
X8.3154Y-2.6867
X8.3661Y-6.8701
X8.3661Y-7.185
X8.3941Y-2.5292
X8.3941Y-2.8442
X8.4449Y-7.0276
X8.5236Y-6.8701
X8.5236Y-7.185
X8.6024Y-7.0276
X8.6811Y-6.8701
X8.6811Y-7.185
X8.7598Y-7.0276
X8.8386Y-6.8701
X8.8386Y-7.185
X8.9173Y-7.0276
X8.9961Y-6.8701
X8.9961Y-7.185
X10.3325Y-6.9121
X10.3325Y-7.2271
X10.4113Y-7.0696
X10.49Y-6.9121
X10.49Y-7.2271
X10.5687Y-7.0696
X10.6242Y-2.5522
X10.6242Y-2.8672
X10.6475Y-6.9121
X10.6475Y-7.2271
X10.7029Y-2.7097
X10.7262Y-7.0696
X10.7817Y-2.5522
X10.7817Y-2.8672
X10.805Y-6.9121
X10.805Y-7.2271
X10.8604Y-2.7097
X10.8837Y-7.0696
X10.9391Y-2.5522
X10.9391Y-2.8672
X10.9624Y-6.9121
X10.9624Y-7.2271
X11.0179Y-2.7097
X11.0412Y-7.0696
X11.0966Y-2.5522
X11.0966Y-2.8672
X11.1199Y-6.9121
X11.1199Y-7.2271
X11.1754Y-2.7097
X11.1987Y-7.0696
X11.2541Y-2.5522
X11.2541Y-2.8672
X11.2774Y-6.9121
X11.2774Y-7.2271
X11.3561Y-7.0696
X11.4349Y-6.9121
X11.4349Y-7.2271
T12
X7.0061Y-6.0794
X7.0061Y-6.47
X7.14Y-6.0794
X7.14Y-6.47
X7.3361Y-6.0794
X7.3361Y-6.47
X7.47Y-6.0794
X7.47Y-6.47
X7.6917Y-3.2227
X7.6917Y-3.6132
X7.8255Y-3.2227
X7.8255Y-3.6132
X8.0468Y-3.2227
X8.0468Y-3.6132
X8.1807Y-3.2227
X8.1807Y-3.6132
X8.402Y-3.2227
X8.402Y-3.6132
X8.5359Y-3.2227
X8.5359Y-3.6132
X8.782Y-4.4941
X8.782Y-4.628
X8.7847Y-4.8231
X8.7847Y-4.9569
X8.79Y-3.871
X8.79Y-4.0049
X8.79Y-4.181
X8.79Y-4.3149
X9.1725Y-4.4941
X9.1725Y-4.628
X9.1753Y-4.8231
X9.1753Y-4.9569
X9.1806Y-3.871
X9.1806Y-4.0049
X9.1806Y-4.181
X9.1806Y-4.3149
T13
X2.7Y-3.662
X2.7Y-3.818
X2.71Y-5.928
X2.71Y-6.0839
X4.9Y-3.308
X5.0Y-6.888
X6.082Y-6.6009
X7.88Y-6.4841
X7.88Y-6.64
X8.3Y-6.4841
X8.3Y-6.64
T15
X4.1011Y-4.4379
X4.1029Y-5.3929
X6.4911Y-4.6129
X6.4911Y-5.2229
T12
G00X7.6601Y-4.3745
M15
G01X7.6601Y-4.4356
M16
G05
T14
G00X8.3579Y-4.27
M15
G01X8.4386Y-4.27
M16
G05
M30
